<?xml version="1.0" encoding="UTF-8" standalone="no"?>
<svg
   xmlns:dc="http://purl.org/dc/elements/1.1/"
   xmlns:cc="http://creativecommons.org/ns#"
   xmlns:rdf="http://www.w3.org/1999/02/22-rdf-syntax-ns#"
   xmlns:svg="http://www.w3.org/2000/svg"
   xmlns="http://www.w3.org/2000/svg"
   version="1.1"
   id="svg2"
   width="400"
   height="476"
   viewBox="0 0 400 476">
  <metadata
     id="metadata8">
    <rdf:RDF>
      <cc:Work
         rdf:about="">
        <dc:format>image/svg+xml</dc:format>
        <dc:type
           rdf:resource="http://purl.org/dc/dcmitype/StillImage" />
        <dc:title></dc:title>
      </cc:Work>
    </rdf:RDF>
  </metadata>
  <defs
     id="defs6" />
  <path
     style="fill:#43281f;stroke-width:1.33333337;fill-opacity:0.94117647"
     d="m 106.99894,474.12485 c -1.03133,-1.03133 -8.904694,-14.48993 -17.496364,-29.908 l -15.62121,-28.03285 -6.26554,1.82885 C 6.8398059,435.75284 4.4433159,436.15255 2.6117159,428.85489 2.0087759,426.45259 11.614526,402.23549 39.783456,335.14107 74.335706,252.84247 77.598576,244.42569 75.890796,242 58.257536,216.95424 49.062416,189.89492 47.799526,159.33333 44.738616,85.259636 93.478046,21.883197 167.35028,3.8801321 c 18.357,-4.47369935 51.09056,-4.46349365 69.25856,0.021593 39.61662,9.7800459 71.64344,31.5418649 93.35222,63.4316069 35.356,51.937268 35.6581,117.187518 0.79017,170.666668 -8.0492,12.34557 -32.83223,36.12536 -46.2468,44.37469 -13.16716,8.0972 -30.56321,15.51802 -43.91167,18.73186 -5.0868,1.22473 -9.00484,2.82678 -8.70676,3.56012 3.89414,9.57993 60.99596,145.30946 61.23104,145.54453 0.17762,0.17763 5.36223,-8.79724 11.52138,-19.94413 C 320.82332,400.9754 321.49304,400 325.42018,400 c 1.85338,0 14.85425,3.29161 28.89081,7.31468 14.03657,4.02308 25.70701,7.12871 25.93432,6.9014 0.22731,-0.22729 -12.48109,-31.15452 -28.24088,-68.72716 -15.75977,-37.57263 -28.65415,-69.76443 -28.65415,-71.53732 0,-2.00492 1.31816,-4.08715 3.48698,-5.50821 7.50861,-4.91983 7.40654,-5.10924 42.78738,79.40484 23.85198,56.97513 32.37499,78.70594 31.78738,81.04716 -1.8201,7.25184 -4.27276,6.8412 -64.9883,-10.88086 l -6.2599,-1.82718 -14.95727,26.90633 C 306.98006,457.89216 299.04242,471.35 297.56736,473 c -3.1578,3.53232 -7.81264,3.89309 -10.38716,0.80508 -1.00645,-1.20721 -17.46685,-39.45721 -36.57865,-85 L 215.85283,306 200.30767,305.75475 c -23.49727,-0.37072 -48.52993,-6.12994 -66.95739,-15.40474 -10.77197,-5.42169 -28.07768,-17.5098 -36.110594,-25.22341 l -8.25258,-7.92452 -4.05699,9.73229 c -2.23134,5.35276 -16.99263,40.58928 -32.80287,78.30339 -15.81024,37.71409 -28.56128,68.75571 -28.33564,68.98135 0.22565,0.22564 12.00478,-2.9129 26.17586,-6.97452 14.17108,-4.06163 27.32797,-7.20324 29.23753,-6.98135 2.96503,0.34452 5.16884,3.42079 15.0945,21.07009 6.392414,11.36667 12.734544,22.63142 14.093644,25.03278 l 2.47108,4.36609 27.12693,-64.76877 c 18.29879,-43.69056 27.96447,-65.21703 29.70055,-66.14615 3.6569,-1.95712 8.83538,-0.28629 10.51104,3.39135 1.23644,2.71368 -2.64916,12.8792 -28.90824,75.62989 -16.68518,39.87215 -31.24137,73.54481 -32.3471,74.82815 -2.42099,2.80985 -7.36891,3.03773 -9.94846,0.45818 z M 226.39176,288.68028 C 270.7449,280.94573 309.5621,251.16879 328.75275,210.15844 364.22252,134.35967 322.20054,44.214499 240.4821,20.801065 192.23663,6.9780915 139.35227,20.327861 104.115,55.224655 48.734936,110.06962 48.848766,197.16776 104.37072,250.88912 c 32.83352,31.76871 77.4021,45.57205 122.02104,37.79116 z M 182.01695,273.9702 c -38.56747,-6.02848 -73.24899,-31.33383 -90.812274,-66.26108 -2.84614,-5.65999 -6.77768,-15.55999 -8.73675,-22 -3.15321,-10.36547 -3.57259,-14.00417 -3.65471,-31.70912 -0.10275,-22.15348 2.17864,-33.91654 9.86615,-50.87099 12.034254,-26.540965 37.355484,-51.355665 63.583384,-62.311423 18.83448,-7.86743 27.43931,-9.46623 50.42087,-9.368339 19.25357,0.08201 22.49293,0.444124 33.2281,3.714409 23.41636,7.133392 40.45731,17.747534 57.52115,35.82768 12.19673,12.923163 20.66305,26.930686 26.15467,43.272943 5.0601,15.05811 6.23326,25.7414 3.1638,28.81085 -2.92183,2.92183 -7.78731,2.88635 -10.30387,-0.0751 -1.09053,-1.28334 -3.2652,-7.66503 -4.8326,-14.18155 -4.75372,-19.76376 -12.69308,-34.337937 -26.86089,-49.308165 -13.59606,-14.366099 -28.85207,-23.610352 -48.99374,-29.687351 -10.20958,-3.08036 -14.09414,-3.543099 -29.74329,-3.543099 -15.64915,0 -19.53371,0.462739 -29.74329,3.543099 -38.36001,11.573707 -65.71966,39.602769 -75.659174,77.510366 -3.83324,14.61931 -3.84394,37.18838 -0.0246,51.83755 9.464024,36.29928 37.373824,65.24525 74.093704,76.84452 12.951,4.09103 38.67353,5.14335 53.04973,2.17028 42.77537,-8.84613 77.09685,-43.11921 84.99585,-84.87599 C 310.5858,163.49497 312.30819,161 317.22711,161 c 8.32808,0 9.41826,6.59863 4.11417,24.90193 -13.88423,47.91162 -53.63116,81.88512 -103.75417,88.68344 -13.06638,1.77223 -21.19622,1.63163 -35.57019,-0.61517 z m -35.12668,-47.07519 c -2.94124,-3.25002 -2.82763,-6.19894 1.30911,-33.97848 l 3.53669,-23.75013 -19.52623,-19.68325 c -12.2055,-12.30366 -19.52622,-20.69301 -19.52622,-22.37655 0,-5.56552 4.45241,-7.37661 27.66929,-11.25492 12.28188,-2.05166 24.24829,-4.0787 26.592,-4.50455 3.96764,-0.72091 5.06011,-2.31002 15.85343,-23.060699 6.37568,-12.257538 12.50109,-23.336431 13.61202,-24.619764 2.59694,-2.999934 8.61624,-2.999934 11.21318,0 1.11093,1.283333 7.22485,12.340256 13.58648,24.570941 9.97106,19.170052 12.06598,22.339292 15.18677,22.974752 1.99109,0.40544 12.92016,2.25382 24.28683,4.10753 25.95884,4.23344 26.05149,4.25541 28.57342,6.77735 4.35004,4.35004 2.43548,7.35767 -17.43298,27.38591 l -19.52623,19.68325 3.53669,23.75013 c 1.94519,13.06258 3.53199,25.60715 3.52623,27.87682 -0.0107,4.07785 -3.3862,8.53998 -6.46099,8.53998 -0.86562,0 -12.66838,-5.35498 -26.22834,-11.89998 l -24.65447,-11.89998 -24.65447,11.89998 c -13.55996,6.545 -25.46696,11.89998 -26.46001,11.89998 -0.99305,0 -2.79855,-1.09724 -4.0122,-2.43832 z m 55.12668,-37.56168 c 1.48621,0 11.09421,4.204 21.35111,9.34224 10.25689,5.13823 18.66797,8.88823 18.6913,8.33334 0.0233,-0.55491 -1.31209,-10.46412 -2.9676,-22.0205 l -3.01001,-21.01158 15.80393,-15.84522 c 15.58438,-15.62508 15.75063,-15.85612 11.9676,-16.63143 -2.10998,-0.43243 -11.63633,-2.05687 -21.16966,-3.60987 -11.16858,-1.81939 -18.13651,-3.6061 -19.59159,-5.02364 -1.24204,-1.21 -6.24037,-9.85 -11.10741,-19.2 -4.86703,-9.350003 -9.34816,-17.000003 -9.95808,-17.000003 -0.60991,0 -5.11255,7.65 -10.00587,17.000003 -4.89332,9.35 -9.89597,17.99 -11.117,19.2 -1.43801,1.42502 -8.32592,3.19465 -19.55339,5.02364 -9.53333,1.553 -19.05968,3.17744 -21.16966,3.60987 -3.78303,0.77531 -3.61678,1.00635 11.9676,16.63143 l 15.80393,15.84522 -3.01001,21.01158 c -1.65551,11.55638 -2.99092,21.46559 -2.9676,22.0205 0.0233,0.55489 8.43441,-3.19511 18.6913,-8.33334 10.2569,-5.13824 19.8649,-9.34224 21.35111,-9.34224 z"
     id="path4487" />
</svg>
