<?xml version="1.0" encoding="UTF-8" standalone="no"?>
<svg
   xmlns:dc="http://purl.org/dc/elements/1.1/"
   xmlns:cc="http://creativecommons.org/ns#"
   xmlns:rdf="http://www.w3.org/1999/02/22-rdf-syntax-ns#"
   xmlns:svg="http://www.w3.org/2000/svg"
   xmlns="http://www.w3.org/2000/svg"
   xmlns:sodipodi="http://sodipodi.sourceforge.net/DTD/sodipodi-0.dtd"
   xmlns:inkscape="http://www.inkscape.org/namespaces/inkscape"
   viewBox="0 0 400 400"
   height="400"
   width="400"
   id="svg2"
   version="1.1"
   sodipodi:docname="advan1.svg"
   inkscape:version="0.92.1 r15371">
  <sodipodi:namedview
     pagecolor="#ffffff"
     bordercolor="#666666"
     borderopacity="1"
     objecttolerance="10"
     gridtolerance="10"
     guidetolerance="10"
     inkscape:pageopacity="0"
     inkscape:pageshadow="2"
     inkscape:window-width="640"
     inkscape:window-height="480"
     id="namedview6"
     showgrid="false"
     inkscape:zoom="0.59"
     inkscape:cx="200"
     inkscape:cy="200"
     inkscape:window-x="0"
     inkscape:window-y="0"
     inkscape:window-maximized="0"
     inkscape:current-layer="svg2" />
  <metadata
     id="metadata8">
    <rdf:RDF>
      <cc:Work
         rdf:about="">
        <dc:format>image/svg+xml</dc:format>
        <dc:type
           rdf:resource="http://purl.org/dc/dcmitype/StillImage" />
        <dc:title />
      </cc:Work>
    </rdf:RDF>
  </metadata>
  <defs
     id="defs6" />
  <path
     id="path4487"
     d="M 150.11575,388.07677 C 142.96378,384.88442 137.0656,376.39179 137.0656,369.2862 v -2.99013 l -57.144756,-0.34686 -57.14475,-0.34684 -3.44523,-3.44579 -3.44523,-3.44578 -0.33265,-98.79971 c -0.36792,-109.27468 -0.74352,-103.94995 7.61225,-107.91503 6.04757,-2.86975 36.23203,-2.94251 40.2944,-0.0971 2.92712,2.05025 3.48538,4.9365 1.54895,8.0082 -0.92701,1.47049 -5.05807,1.99557 -19.5562,2.48573 l -18.38091,0.6214 -0.31844,94.61035 c -0.26495,78.71508 -0.0334,94.84693 1.37822,96.01846 1.24254,1.03121 31.76653,1.32316 114.041176,1.09074 l 112.34452,-0.31735 0.62143,-73.19428 c 0.56587,-66.64949 0.8073,-73.31148 2.69994,-74.50505 1.47822,-0.9322 3.00376,-0.88919 5.2822,0.14893 l 3.2037,1.4597 v 73.35606 73.35607 h 27.24152 c 14.98284,0 28.1262,0.33948 29.20748,0.75441 2.32268,0.8913 2.6352,6.77931 0.47452,8.93999 -1.07083,1.07083 -9.30773,1.49145 -29.20748,1.49145 h -27.71604 v 3.02626 c 0,7.28388 -5.95773,15.72655 -13.32094,18.87705 -5.74022,2.45608 -97.37273,2.41122 -102.88753,-0.0503 z m 101.18263,-12.53143 c 1.34222,-1.36716 2.81595,-4.0238 3.27494,-5.90364 l 0.83454,-3.41789 h -53.71295 -53.71296 l 0.85302,3.41789 c 1.08037,4.32891 3.89213,7.47322 7.31421,8.17925 1.46665,0.30259 22.92614,0.47366 47.68773,0.38015 43.26017,-0.16336 45.11651,-0.26724 47.46147,-2.65576 z m 87.90577,-11.19146 c -1.11995,-1.11994 -2.03626,-3.00302 -2.03626,-4.18463 0,-4.48767 2.50642,-5.13129 19.98235,-5.13129 12.8171,0 17.34459,-0.41589 18.40235,-1.6904 1.02104,-1.23029 1.31619,-27.36399 1.08433,-96.01182 l -0.31857,-94.32142 -54.99707,-0.32364 -54.99706,-0.32365 v 14.21718 c 0,14.91551 -1.07165,18.12334 -6.05456,18.12334 -4.37934,0 -5.13128,-2.58625 -5.13128,-17.64878 v -14.66589 h -85.83984 c -56.79477,0 -86.653266,-0.43534 -88.243856,-1.28659 -3.2431,-1.73566 -3.2431,-8.11987 0,-9.85552 1.44398,-0.7728 13.10798,-1.2866 29.207466,-1.2866 h 26.80345 v -4.29158 c 0,-6.90874 2.00971,-9.63054 14.23223,-19.27501 l 11.56223,-9.12347 -2.64354,-5.71593 c -2.13886,-4.62468 -2.64355,-8.0888 -2.64355,-18.144663 0,-11.302052 0.3329,-13.086324 3.6724,-19.683109 4.69215,-9.268823 14.69342,-18.487479 23.72155,-21.865339 3.78305,-1.415417 7.69621,-2.573488 8.69595,-2.573488 1.48818,0 1.81768,-2.556035 1.81768,-14.100392 0,-12.081795 0.32538,-14.394862 2.27289,-16.157329 2.95416,-2.673479 5.54655,-2.604354 8.09888,0.215952 1.65562,1.82943 2.05695,4.981864 2.05695,16.15733 0,11.354862 0.33116,13.884439 1.81768,13.884439 0.99973,0 4.9129,1.158071 8.69595,2.573488 9.02813,3.37786 19.02939,12.596516 23.72155,21.865339 3.33949,6.596785 3.67239,8.381057 3.67239,19.683109 0,10.055863 -0.50468,13.519983 -2.64355,18.144663 l -2.64353,5.71593 11.56223,9.12347 c 12.22251,9.64447 14.23223,12.36627 14.23223,19.27501 v 4.29158 h 54.80923 c 48.15387,0 55.32917,0.24673 59.09114,2.03189 8.35577,3.96508 7.98017,-1.35965 7.61226,107.91503 l -0.33266,98.79971 -3.44276,3.44578 c -3.43316,3.43618 -3.49763,3.44688 -23.13191,3.83967 -16.92995,0.33868 -19.97449,0.1085 -21.72537,-1.64237 z M 255.13838,146.93684 c 0,-2.73079 -6.41643,-8.80652 -20.85453,-19.7472 -1.10516,-0.83745 -2.43279,-0.41312 -4.35371,1.39148 -1.52004,1.42799 -6.1178,4.15461 -10.21726,6.05915 -6.31168,2.9323 -9.07203,3.46281 -18.01797,3.46281 -8.94595,0 -11.70629,-0.53051 -18.01797,-3.46281 -4.09946,-1.90454 -8.69723,-4.63116 -10.21726,-6.05915 -1.92092,-1.8046 -3.24856,-2.22893 -4.35371,-1.39148 -14.4381,10.94068 -20.85453,17.01641 -20.85453,19.7472 v 3.02733 h 53.44347 53.44347 z m -38.77599,-23.80411 c 17.23688,-8.5895 23.54347,-28.967311 14.14443,-45.703342 -12.81526,-22.819 -44.80856,-22.819 -57.62382,0 -12.53377,22.317773 3.13392,48.920222 28.81191,48.920222 6.34286,0 9.68138,-0.73221 14.66748,-3.21688 z m -24.33314,-10.6021 c -6.94661,-3.4385 -11.46316,-10.91566 -11.46316,-18.977311 0,-18.883219 22.93931,-28.791782 35.62705,-15.388991 5.36347,5.665751 6.63059,8.602764 6.63059,15.369004 0,8.159078 -4.53668,15.625058 -11.56068,19.025318 -6.83264,3.30762 -12.51172,3.29935 -19.2338,-0.0281 z m 17.03268,-13.070368 c 1.41677,-1.801135 2.57595,-4.623018 2.57595,-6.27085 0,-4.277735 -5.26765,-9.09743 -9.94297,-9.09743 -4.67532,0 -9.94298,4.819695 -9.94298,9.09743 0,1.647832 1.15918,4.469715 2.57595,6.27085 3.63901,4.626248 11.09505,4.626248 14.73405,0 z M 60.939724,333.80959 c -2.03272,-1.18394 -2.17503,-6.08471 -2.17503,-74.90735 0,-77.58209 -0.07,-76.62341 5.59293,-76.62341 5.66077,0 5.59292,-0.92166 5.59292,75.97495 0,64.69927 -0.2219,73.21397 -1.95309,74.94515 -2.24694,2.24694 -3.98955,2.39771 -7.05773,0.61066 z m 38.83973,-1.14331 c -2.42817,-2.42818 -2.48574,-4.1429 -2.48574,-74.03256 0,-46.94224 0.44245,-72.37355 1.2866,-73.95085 0.82255,-1.53696 2.599876,-2.40404 4.927756,-2.40404 2.32787,0 4.1052,0.86708 4.92775,2.40404 0.8444,1.57777 1.2866,27.14183 1.2866,74.37965 0,68.15038 -0.12079,72.08494 -2.27288,74.03256 -2.97071,2.68845 -4.64653,2.59475 -7.670086,-0.4288 z m 39.239226,0.53265 c -1.73119,-1.73118 -1.95308,-10.24588 -1.95308,-74.94515 0,-76.89661 -0.0679,-75.97495 5.59292,-75.97495 5.66295,0 5.59292,-0.95971 5.59292,76.64144 0,71.55203 -0.0687,73.69535 -2.40404,74.94515 -3.26612,1.74796 -4.53845,1.62379 -6.82872,-0.66649 z m 39.60994,0.18897 c -2.34109,-1.71185 -2.41257,-3.94135 -2.41257,-75.23905 0,-79.22268 -0.28306,-75.80198 6.27649,-75.85099 5.58721,-0.0418 5.53078,-0.81565 5.53078,75.85207 0,69.03448 -0.12018,72.99697 -2.27289,74.94515 -2.77897,2.51494 -4.01346,2.56569 -7.12181,0.29282 z m 38.79481,-0.50877 c -1.86464,-2.0604 -2.05693,-9.067 -2.05693,-74.94515 0,-76.43974 -0.0557,-75.67784 5.53077,-75.63612 6.55956,0.0489 6.2765,-3.37169 6.2765,75.85099 0,71.2977 -0.0715,73.5272 -2.41257,75.23905 -3.20013,2.34 -4.86408,2.22463 -7.33777,-0.50877 z m 78.30091,0 c -1.86401,-2.0597 -2.05694,-9.00358 -2.05694,-74.03256 0,-47.08896 0.44232,-72.58616 1.28659,-74.1637 0.82256,-1.53696 2.59987,-2.40404 4.92776,-2.40404 2.32789,0 4.1052,0.86708 4.92777,2.40404 0.84414,1.5773 1.28659,27.00861 1.28659,73.95085 0,69.88966 -0.0575,71.60438 -2.48575,74.03256 -3.08602,3.08602 -5.23339,3.14397 -7.88602,0.21285 z m 39.66803,0.3198 c -1.7312,-1.73118 -1.95309,-10.24588 -1.95309,-74.94515 0,-76.89661 -0.0679,-75.97495 5.59292,-75.97495 5.66296,0 5.59292,-0.95971 5.59292,76.64144 0,71.55203 -0.0687,73.69535 -2.40403,74.94515 -3.26612,1.74796 -4.53844,1.62379 -6.82872,-0.66649 z"
     style="fill:#ffffff;stroke-width:1.24287152" />
</svg>
