<?xml version="1.0" encoding="utf-8"?>
<svg xmlns="http://www.w3.org/2000/svg"
	xmlns:xlink="http://www.w3.org/1999/xlink"
	width="53px" height="69px" viewBox="0 0 53 69">
<path fillRule="evenodd" d="M 48.38 41.55C 46.27 45.61 43.33 49.58 39.65 53.35 33.41 59.75 27.26 63.31 27 63.46 26.85 63.55 26.67 63.6 26.5 63.6 26.33 63.6 26.16 63.55 26 63.47 25.74 63.32 19.59 59.83 13.35 53.47 9.67 49.72 6.73 45.75 4.62 41.68 1.97 36.55 0.62 31.24 0.62 25.9 0.62 11.62 12.23-0 26.5-0 40.77-0 52.37 11.62 52.37 25.9 52.37 31.17 51.03 36.44 48.38 41.55ZM 26.5 2.02C 13.35 2.02 2.65 12.73 2.65 25.9 2.65 30.9 3.91 35.89 6.4 40.72 8.41 44.61 11.22 48.41 14.75 52.01 19.8 57.16 24.91 60.44 26.49 61.41 28.08 60.42 33.19 57.08 38.24 51.9 41.77 48.27 44.58 44.46 46.59 40.59 49.09 35.78 50.35 30.83 50.35 25.9 50.35 12.73 39.65 2.02 26.5 2.02ZM 26.5 45.23C 15.82 45.23 7.14 36.54 7.14 25.86 7.14 15.17 15.82 6.48 26.5 6.48 28.85 6.48 31.15 6.9 33.33 7.72 33.86 7.92 34.12 8.5 33.92 9.03 33.73 9.55 33.14 9.82 32.62 9.62 30.67 8.88 28.61 8.51 26.5 8.51 16.94 8.51 9.16 16.29 9.16 25.86 9.16 35.42 16.94 43.21 26.5 43.21 36.06 43.21 43.83 35.42 43.83 25.86 43.83 23.01 43.13 20.19 41.8 17.69 41.8 17.69 41.8 17.69 41.8 17.69 41.67 17.46 41.55 17.23 41.41 17.01 41.13 16.53 41.29 15.91 41.77 15.62 42.25 15.33 42.87 15.49 43.15 15.97 43.3 16.22 43.44 16.47 43.58 16.72 43.58 16.72 43.58 16.72 43.58 16.72 45.07 19.52 45.86 22.67 45.86 25.86 45.86 36.54 37.17 45.23 26.5 45.23ZM 39.45 13.87C 39.2 13.87 38.94 13.77 38.74 13.57 38.1 12.94 37.42 12.35 36.69 11.82 36.24 11.49 36.14 10.86 36.47 10.41 36.8 9.95 37.43 9.85 37.88 10.18 38.69 10.77 39.46 11.43 40.17 12.14 40.56 12.53 40.56 13.17 40.17 13.57 39.97 13.77 39.71 13.87 39.45 13.87ZM 20.02 66.97C 20.02 66.97 32.97 66.97 32.97 66.97 33.53 66.97 33.99 67.43 33.99 67.99 33.99 68.55 33.53 69 32.97 69 32.97 69 20.02 69 20.02 69 19.46 69 19.01 68.55 19.01 67.99 19.01 67.43 19.46 66.97 20.02 66.97Z" fill="rgb(67,39,17)"/></svg>