<?xml version="1.0" encoding="utf-8"?>
<svg xmlns="http://www.w3.org/2000/svg"
	xmlns:xlink="http://www.w3.org/1999/xlink"
	width="69px" height="56px" viewBox="0 0 69 56">
<path fillRule="evenodd" d="M 68.88 48.24C 68.88 48.24 63.06 48.24 63.06 48.24 62.52 52.16 59.2 55.13 55.11 55.13 51.02 55.13 47.7 52.16 47.15 48.24 47.15 48.24 43.63 48.24 43.63 48.24 43.63 48.24 41.33 48.24 41.33 48.24 41.33 48.24 21.73 48.24 21.73 48.24 21.18 52.16 17.86 55.13 13.78 55.13 9.69 55.13 6.37 52.16 5.82 48.24 5.82 48.24 4.02 48.24 4.02 48.24 1.84 48.24-0 46.4-0 44.22-0 44.22-0 34.46-0 34.46-0 34.46-0 32.16-0 32.16-0 32.16-0 4.49-0 4.49-0 1.96 1.95 0.01 4.48 0.01 4.48 0.01 39.26 0.01 39.26 0.01 41.68 0.01 43.63 1.96 43.63 4.49 43.63 4.49 43.63 6.9 43.63 6.9 43.63 6.9 55.11 6.9 55.11 6.9 56.14 6.9 57.17 7.36 57.98 8.16 57.98 8.16 67.97 19.18 67.97 19.18 68.66 19.87 69 20.79 69 21.82 69 21.82 69 48.24 69 48.24 69 48.24 68.88 48.24 68.88 48.24ZM 13.78 52.83C 16.99 52.83 19.52 50.3 19.52 47.09 19.52 43.87 16.99 41.35 13.78 41.35 10.56 41.35 8.04 43.87 8.04 47.09 8.04 50.3 10.56 52.83 13.78 52.83ZM 41.33 6.9C 41.33 6.9 41.33 4.49 41.33 4.49 41.33 3.34 40.41 2.3 39.15 2.3 39.15 2.3 4.48 2.3 4.48 2.3 3.21 2.3 2.3 3.22 2.3 4.49 2.3 4.49 2.3 16.08 2.3 16.08 2.3 16.08 13.78 16.08 13.78 16.08 14.47 16.08 14.92 16.54 14.92 17.23 14.92 17.92 14.47 18.38 13.78 18.38 13.78 18.38 2.3 18.38 2.3 18.38 2.3 18.38 2.3 21.82 2.3 21.82 2.3 21.82 18.37 21.82 18.37 21.82 19.06 21.82 19.52 22.28 19.52 22.97 19.52 23.66 19.06 24.12 18.37 24.12 18.37 24.12 2.3 24.12 2.3 24.12 2.3 24.12 2.3 32.16 2.3 32.16 2.3 32.16 41.33 32.16 41.33 32.16 41.33 32.16 41.33 6.9 41.33 6.9ZM 41.33 34.46C 41.33 34.46 2.3 34.46 2.3 34.46 2.3 34.46 2.3 44.22 2.3 44.22 2.3 45.14 3.1 45.94 4.02 45.94 4.02 45.94 5.82 45.94 5.82 45.94 6.34 42.26 9.29 39.42 13.02 39.08 13.05 39.08 13.08 39.08 13.11 39.08 13.2 39.07 13.29 39.06 13.39 39.06 13.52 39.05 13.65 39.05 13.78 39.05 13.91 39.05 14.04 39.05 14.17 39.06 14.26 39.06 14.35 39.07 14.45 39.08 14.48 39.08 14.5 39.08 14.53 39.08 18.27 39.42 21.22 42.26 21.73 45.94 21.73 45.94 41.33 45.94 41.33 45.94 41.33 45.94 41.33 34.46 41.33 34.46ZM 55.11 52.83C 58.32 52.83 60.85 50.3 60.85 47.09 60.85 43.87 58.32 41.35 55.11 41.35 51.89 41.35 49.37 43.87 49.37 47.09 49.37 50.3 51.89 52.83 55.11 52.83ZM 66.59 21.71C 66.59 21.37 66.47 20.91 66.13 20.68 66.13 20.68 59.81 13.79 59.81 13.79 59.81 13.79 49.37 13.79 49.37 13.79 49.37 13.79 49.37 25.27 49.37 25.27 49.37 25.27 66.59 25.27 66.59 25.27 66.59 25.27 66.59 21.71 66.59 21.71ZM 66.59 35.6C 66.59 35.6 60.85 35.6 60.85 35.6 60.16 35.6 59.7 35.14 59.7 34.46 59.7 33.77 60.16 33.31 60.85 33.31 60.85 33.31 66.59 33.31 66.59 33.31 66.59 33.31 66.59 27.57 66.59 27.57 66.59 27.57 49.02 27.57 49.02 27.57 47.99 27.57 47.07 26.65 47.07 25.61 47.07 25.61 47.07 13.44 47.07 13.44 47.07 12.41 47.99 11.49 49.02 11.49 49.02 11.49 57.9 11.49 57.9 11.49 57.9 11.49 56.26 9.65 56.26 9.65 55.91 9.42 55.45 9.19 55.11 9.19 55.11 9.19 43.63 9.19 43.63 9.19 43.63 9.19 43.63 32.16 43.63 32.16 43.63 32.16 43.63 34.46 43.63 34.46 43.63 34.46 43.63 45.94 43.63 45.94 43.63 45.94 47.15 45.94 47.15 45.94 47.67 42.26 50.62 39.42 54.35 39.08 54.38 39.08 54.41 39.08 54.44 39.08 54.53 39.07 54.62 39.06 54.72 39.06 54.85 39.05 54.98 39.05 55.11 39.05 55.24 39.05 55.37 39.05 55.5 39.06 55.59 39.06 55.69 39.07 55.78 39.08 55.81 39.08 55.83 39.08 55.86 39.08 59.6 39.42 62.55 42.26 63.06 45.94 63.06 45.94 66.59 45.94 66.59 45.94 66.59 45.94 66.59 35.6 66.59 35.6ZM 55.11 44.79C 56.37 44.79 57.4 45.82 57.4 47.09 57.4 48.35 56.37 49.38 55.11 49.38 53.84 49.38 52.81 48.35 52.81 47.09 52.81 45.82 53.84 44.79 55.11 44.79ZM 13.78 44.79C 15.04 44.79 16.07 45.82 16.07 47.09 16.07 48.35 15.04 49.38 13.78 49.38 12.51 49.38 11.48 48.35 11.48 47.09 11.48 45.82 12.51 44.79 13.78 44.79Z" fill="rgb(67,39,17)"/></svg>