<?xml version="1.0" encoding="utf-8"?>
<svg xmlns="http://www.w3.org/2000/svg"
	xmlns:xlink="http://www.w3.org/1999/xlink"
	width="60px" height="60px" viewBox="0 0 60 60">
<path fillRule="evenodd" d="M 45.43 54.93C 45.43 54.93 38.38 54.93 38.38 54.93 37.53 54.93 36.85 54.24 36.85 53.39 36.85 53.39 36.85 40.95 36.85 40.95 36.85 40.1 37.53 39.41 38.38 39.41 38.38 39.41 50.71 39.41 50.71 39.41 51.55 39.41 52.24 40.1 52.24 40.95 52.24 40.95 52.24 53.39 52.24 53.39 52.24 54.24 51.55 54.93 50.71 54.93 50.71 54.93 48.98 54.93 48.98 54.93 48.47 54.93 48.06 54.52 48.06 54.01 48.06 53.5 48.47 53.08 48.98 53.08 48.98 53.08 50.4 53.08 50.4 53.08 50.4 53.08 50.4 41.26 50.4 41.26 50.4 41.26 38.68 41.26 38.68 41.26 38.68 41.26 38.68 53.08 38.68 53.08 38.68 53.08 45.43 53.08 45.43 53.08 45.94 53.08 46.35 53.5 46.35 54.01 46.35 54.52 45.94 54.93 45.43 54.93ZM 41.86 49.23C 41.35 49.23 40.94 48.82 40.94 48.31 40.94 48.31 40.94 45.42 40.94 45.42 40.94 45.42 40.81 45.56 40.81 45.56 40.45 45.92 39.87 45.92 39.51 45.56 39.15 45.2 39.15 44.61 39.51 44.25 39.51 44.25 41.21 42.52 41.21 42.52 41.38 42.35 41.62 42.25 41.86 42.25 42.1 42.25 42.34 42.35 42.51 42.52 42.51 42.52 44.21 44.25 44.21 44.25 44.57 44.61 44.57 45.19 44.21 45.56 44.03 45.74 43.8 45.83 43.56 45.83 43.33 45.83 43.09 45.74 42.91 45.56 42.91 45.56 42.78 45.42 42.78 45.42 42.78 45.42 42.78 48.31 42.78 48.31 42.78 48.82 42.37 49.23 41.86 49.23ZM 48.66 51.85C 48.66 51.85 40.42 51.85 40.42 51.85 39.91 51.85 39.5 51.43 39.5 50.92 39.5 50.41 39.91 49.99 40.42 49.99 40.42 49.99 48.66 49.99 48.66 49.99 49.17 49.99 49.58 50.41 49.58 50.92 49.58 51.43 49.17 51.85 48.66 51.85ZM 47.22 49.23C 46.71 49.23 46.3 48.82 46.3 48.31 46.3 48.31 46.3 45.42 46.3 45.42 46.3 45.42 46.17 45.56 46.17 45.56 45.99 45.74 45.75 45.83 45.52 45.83 45.28 45.83 45.05 45.74 44.87 45.56 44.51 45.2 44.51 44.61 44.87 44.25 44.87 44.25 46.57 42.52 46.57 42.52 46.74 42.35 46.98 42.25 47.22 42.25 47.46 42.25 47.7 42.35 47.87 42.52 47.87 42.52 49.57 44.25 49.57 44.25 49.93 44.61 49.93 45.19 49.57 45.56 49.21 45.92 48.63 45.92 48.27 45.56 48.27 45.56 48.14 45.42 48.14 45.42 48.14 45.42 48.14 48.31 48.14 48.31 48.14 48.82 47.73 49.23 47.22 49.23ZM 59.08 36.73C 59.59 36.73 60 37.15 60 37.66 60 37.66 60 58.46 60 58.46 60 59.31 59.31 60 58.47 60 58.47 60 1.53 60 1.53 60 0.69 60-0 59.31-0 58.46-0 58.46-0 30.61-0 30.61-0 29.76 0.69 29.07 1.53 29.07 1.53 29.07 13.94 29.07 13.94 29.07 13.94 29.07 13.94 1.53 13.94 1.53 13.94 0.68 14.63-0.01 15.47-0.01 15.47-0.01 43.33-0.01 43.33-0.01 44.17-0.01 44.86 0.68 44.86 1.53 44.86 1.53 44.86 29.07 44.86 29.07 44.86 29.07 58.47 29.07 58.47 29.07 59.31 29.07 60 29.76 60 30.61 60 30.61 60 33.95 60 33.95 60 34.46 59.59 34.88 59.08 34.88 58.57 34.88 58.16 34.46 58.16 33.95 58.16 33.95 58.16 30.92 58.16 30.92 58.16 30.92 48.93 30.92 48.93 30.92 48.93 30.92 48.93 35.41 48.93 35.41 48.93 36.27 48.24 36.96 47.4 36.96 47.4 36.96 41.68 36.96 41.68 36.96 40.84 36.96 40.15 36.27 40.15 35.41 40.15 35.41 40.15 30.92 40.15 30.92 40.15 30.92 30.92 30.92 30.92 30.92 30.92 30.92 30.92 58.15 30.92 58.15 30.92 58.15 58.16 58.15 58.16 58.15 58.16 58.15 58.16 37.66 58.16 37.66 58.16 37.15 58.57 36.73 59.08 36.73ZM 12.91 30.92C 12.91 30.92 12.91 35.11 12.91 35.11 12.91 35.11 18.01 35.11 18.01 35.11 18.01 35.11 18.01 30.92 18.01 30.92 18.01 30.92 15.47 30.92 15.47 30.92 15.47 30.92 12.91 30.92 12.91 30.92ZM 31.95 1.84C 31.95 1.84 26.85 1.84 26.85 1.84 26.85 1.84 26.85 6.03 26.85 6.03 26.85 6.03 31.95 6.03 31.95 6.03 31.95 6.03 31.95 1.84 31.95 1.84ZM 41.99 35.11C 41.99 35.11 47.09 35.11 47.09 35.11 47.09 35.11 47.09 30.92 47.09 30.92 47.09 30.92 43.33 30.92 43.33 30.92 43.33 30.92 41.99 30.92 41.99 30.92 41.99 30.92 41.99 35.11 41.99 35.11ZM 43.02 29.07C 43.02 29.07 43.02 1.84 43.02 1.84 43.02 1.84 33.78 1.84 33.78 1.84 33.78 1.84 33.78 6.34 33.78 6.34 33.78 7.19 33.1 7.88 32.25 7.88 32.25 7.88 26.54 7.88 26.54 7.88 25.7 7.88 25.01 7.19 25.01 6.34 25.01 6.34 25.01 1.84 25.01 1.84 25.01 1.84 15.78 1.84 15.78 1.84 15.78 1.84 15.78 29.07 15.78 29.07 15.78 29.07 23.39 29.07 23.39 29.07 23.89 29.07 24.31 29.48 24.31 29.99 24.31 30.51 23.89 30.92 23.39 30.92 23.39 30.92 19.85 30.92 19.85 30.92 19.85 30.92 19.85 35.41 19.85 35.41 19.85 36.27 19.16 36.96 18.31 36.96 18.31 36.96 12.6 36.96 12.6 36.96 11.76 36.96 11.07 36.27 11.07 35.41 11.07 35.41 11.07 30.92 11.07 30.92 11.07 30.92 1.84 30.92 1.84 30.92 1.84 30.92 1.84 58.15 1.84 58.15 1.84 58.15 29.08 58.15 29.08 58.15 29.08 58.15 29.08 30.92 29.08 30.92 29.08 30.92 27.31 30.92 27.31 30.92 26.8 30.92 26.39 30.51 26.39 29.99 26.39 29.48 26.8 29.07 27.31 29.07 27.31 29.07 43.02 29.07 43.02 29.07ZM 21.7 24.31C 21.7 24.31 21.7 11.87 21.7 11.87 21.7 11.02 22.39 10.33 23.23 10.33 23.23 10.33 29.63 10.33 29.63 10.33 30.14 10.33 30.55 10.74 30.55 11.26 30.55 11.77 30.14 12.18 29.63 12.18 29.63 12.18 23.54 12.18 23.54 12.18 23.54 12.18 23.54 24 23.54 24 23.54 24 35.26 24 35.26 24 35.26 24 35.26 12.18 35.26 12.18 35.26 12.18 33.31 12.18 33.31 12.18 32.8 12.18 32.39 11.77 32.39 11.26 32.39 10.74 32.8 10.33 33.31 10.33 33.31 10.33 35.56 10.33 35.56 10.33 36.41 10.33 37.09 11.02 37.09 11.87 37.09 11.87 37.09 24.31 37.09 24.31 37.09 25.16 36.41 25.86 35.56 25.86 35.56 25.86 23.23 25.86 23.23 25.86 22.39 25.86 21.7 25.16 21.7 24.31ZM 24.8 16.05C 24.8 16.05 24.8 13.77 24.8 13.77 24.8 13.26 25.21 12.85 25.72 12.85 25.72 12.85 33.08 12.85 33.08 12.85 33.59 12.85 34 13.26 34 13.77 34 13.77 34 16.05 34 16.05 34 18.29 32.41 20.17 30.32 20.6 30.32 20.6 30.32 21.48 30.32 21.48 30.32 21.48 31.65 21.48 31.65 21.48 32.16 21.48 32.57 21.9 32.57 22.41 32.57 22.92 32.16 23.34 31.65 23.34 31.65 23.34 27.14 23.34 27.14 23.34 26.64 23.34 26.23 22.92 26.23 22.41 26.23 21.9 26.64 21.48 27.14 21.48 27.14 21.48 28.48 21.48 28.48 21.48 28.48 21.48 28.48 20.6 28.48 20.6 26.38 20.17 24.8 18.29 24.8 16.05ZM 30.81 17.12C 30.81 17.12 29.98 18.77 29.98 18.77 31.23 18.5 32.16 17.38 32.16 16.05 32.16 16.05 32.16 14.7 32.16 14.7 32.16 14.7 30.03 14.7 30.03 14.7 30.03 14.7 29.44 15.78 29.44 15.78 29.44 15.78 29.99 15.78 29.99 15.78 30.3 15.78 30.6 15.94 30.77 16.22 30.93 16.49 30.95 16.83 30.81 17.12ZM 28.5 17.63C 28.5 17.63 27.88 17.63 27.88 17.63 27.55 17.63 27.25 17.46 27.08 17.17 26.92 16.89 26.91 16.54 27.07 16.25 27.07 16.25 27.93 14.7 27.93 14.7 27.93 14.7 26.63 14.7 26.63 14.7 26.63 14.7 26.63 16.05 26.63 16.05 26.63 17.1 27.21 18.02 28.07 18.49 28.07 18.49 28.5 17.63 28.5 17.63ZM 15.42 41.73C 15.93 41.73 16.34 42.15 16.34 42.66 16.34 42.66 16.34 42.72 16.34 42.72 18.62 43.14 20.36 45.16 20.36 47.58 20.36 48.1 19.95 48.51 19.44 48.51 19.44 48.51 16.34 48.51 16.34 48.51 16.34 48.51 16.34 50.78 16.34 50.78 16.34 51.79 15.53 52.61 14.53 52.61 13.53 52.61 12.72 51.79 12.72 50.78 12.72 50.78 12.72 50.55 12.72 50.55 12.72 50.04 13.13 49.62 13.63 49.62 14.04 49.62 14.38 49.89 14.5 50.25 14.5 50.25 14.5 48.51 14.5 48.51 14.5 48.51 11.47 48.51 11.47 48.51 10.97 48.51 10.56 48.1 10.56 47.58 10.56 45.19 12.26 43.18 14.5 42.73 14.5 42.73 14.5 42.66 14.5 42.66 14.5 42.15 14.91 41.73 15.42 41.73ZM 12.53 46.66C 12.53 46.66 18.38 46.66 18.38 46.66 17.99 45.4 16.83 44.49 15.46 44.49 14.09 44.49 12.92 45.4 12.53 46.66ZM 21.62 54.93C 21.62 54.93 9.29 54.93 9.29 54.93 8.45 54.93 7.76 54.24 7.76 53.39 7.76 53.39 7.76 40.95 7.76 40.95 7.76 40.1 8.45 39.41 9.29 39.41 9.29 39.41 21.62 39.41 21.62 39.41 22.47 39.41 23.15 40.1 23.15 40.95 23.15 40.95 23.15 47.43 23.15 47.43 23.15 47.94 22.74 48.35 22.24 48.35 21.73 48.35 21.32 47.94 21.32 47.43 21.32 47.43 21.32 41.26 21.32 41.26 21.32 41.26 9.6 41.26 9.6 41.26 9.6 41.26 9.6 53.08 9.6 53.08 9.6 53.08 21.32 53.08 21.32 53.08 21.32 53.08 21.32 50.76 21.32 50.76 21.32 50.25 21.73 49.84 22.24 49.84 22.74 49.84 23.15 50.25 23.15 50.76 23.15 50.76 23.15 53.39 23.15 53.39 23.15 54.24 22.47 54.93 21.62 54.93Z" fill="rgb(67,39,17)"/></svg>