<?xml version="1.0" encoding="UTF-8" standalone="no"?>
<!-- Generator: Adobe Illustrator 19.0.0, SVG Export Plug-In . SVG Version: 6.00 Build 0)  -->

<svg
   xmlns:dc="http://purl.org/dc/elements/1.1/"
   xmlns:cc="http://creativecommons.org/ns#"
   xmlns:rdf="http://www.w3.org/1999/02/22-rdf-syntax-ns#"
   xmlns:svg="http://www.w3.org/2000/svg"
   xmlns="http://www.w3.org/2000/svg"
   xmlns:sodipodi="http://sodipodi.sourceforge.net/DTD/sodipodi-0.dtd"
   xmlns:inkscape="http://www.inkscape.org/namespaces/inkscape"
   version="1.1"
   id="Layer_1"
   x="0px"
   y="0px"
   viewBox="0 0 496 496"
   style="enable-background:new 0 0 496 496;"
   xml:space="preserve"
   width="512px"
   height="512px"
   sodipodi:docname="about2.svg"
   inkscape:version="0.92.1 r15371"><metadata
   id="metadata53"><rdf:RDF><cc:Work
       rdf:about=""><dc:format>image/svg+xml</dc:format><dc:type
         rdf:resource="http://purl.org/dc/dcmitype/StillImage" /></cc:Work></rdf:RDF></metadata><defs
   id="defs51" /><sodipodi:namedview
   pagecolor="#ffffff"
   bordercolor="#666666"
   borderopacity="1"
   objecttolerance="10"
   gridtolerance="10"
   guidetolerance="10"
   inkscape:pageopacity="0"
   inkscape:pageshadow="2"
   inkscape:window-width="711"
   inkscape:window-height="480"
   id="namedview49"
   showgrid="false"
   inkscape:zoom="0.4609375"
   inkscape:cx="256"
   inkscape:cy="256"
   inkscape:window-x="0"
   inkscape:window-y="0"
   inkscape:window-maximized="0"
   inkscape:current-layer="Layer_1" />
<g
   id="g16"
   style="fill:#432811;fill-opacity:1">
	<g
   id="g14"
   style="fill:#432811;fill-opacity:1">
		<g
   id="g12"
   style="fill:#432811;fill-opacity:1">
			<path
   d="M408,96c-26.472,0-48,21.528-48,48s21.528,48,48,48s48-21.528,48-48S434.472,96,408,96z M408,176     c-17.648,0-32-14.352-32-32s14.352-32,32-32s32,14.352,32,32S425.648,176,408,176z"
   fill="#FFFFFF"
   id="path2"
   style="fill:#432811;fill-opacity:1" />
			<path
   d="M466.68,78.424C448.568,62.2,424.376,54.344,400,56.44V0H0v496h400v-1.752c2.52,1.032,5.176,1.752,8,1.752     c7.88,0,15.096-4.312,18.832-11.24L456,430.624V217.68c24.784-16.176,40-43.992,40-73.68     C496,119.008,485.312,95.104,466.68,78.424z M208,16c26.472,0,48,21.528,48,48s-21.528,48-48,48s-48-21.528-48-48     S181.528,16,208,16z M16,480V16h149.808C152.472,27.736,144,44.88,144,64s8.472,36.264,21.808,48H152c-17.648,0-32,14.352-32,32     v128c0,17.648,14.352,32,32,32v160c0,5.856,1.696,11.272,4.448,16H16z M248,272v-96h-16v96c0,11.792,6.48,22,16,27.552V464     c0,8.824-7.176,16-16,16c-8.824,0-16-7.176-16-16V304h-16v160c0,8.824-7.176,16-16,16c-8.824,0-16-7.176-16-16V299.552     c9.52-5.552,16-15.76,16-27.552v-96h-16v96c0,8.824-7.176,16-16,16c-8.824,0-16-7.176-16-16V144c0-8.824,7.176-16,16-16h112     c8.824,0,16,7.176,16,16v48v80c0,8.824-7.176,16-16,16C255.176,288,248,280.824,248,272z M384,480H259.552     c2.752-4.728,4.448-10.144,4.448-16V304c17.648,0,32-14.352,32-32v-80v-48c0-17.648-14.352-32-32-32h-13.808     C263.528,100.264,272,83.12,272,64s-8.472-36.264-21.808-48H384v43.32c-34.176,9.648-60.024,39.632-63.568,75.864     c-3.208,32.768,12.232,64.64,39.568,82.496v29.072l29.104,15.44c1.76,0.928,2.896,2.976,2.896,5.2     c0,2.232-1.144,4.28-2.904,5.208L360,288.04v60.552l27.704,14.512c1.944,1.232,3.16,3.576,3.16,6.104s-1.208,4.864-2.576,5.768     L360,389.832v40.8l24,44.544V480z M443.992,206.288L440,208.6v217.992l-27.248,50.568c-1.88,3.504-7.616,3.504-9.504,0     L376,426.592v-27.104l20.296-10.68c6.616-4.208,10.56-11.536,10.56-19.6c0-8.064-3.952-15.392-11.144-19.936L376,338.92v-41.256     l20.592-10.92c7.04-3.736,11.408-11.152,11.408-19.352c0-8.208-4.376-15.616-11.408-19.344L376,237.128v-28.52l-3.992-2.312     c-24.784-14.36-38.448-41.008-35.656-69.536c3.28-33.552,29.944-60.592,63.4-64.288c20.848-2.328,40.808,4.048,56.256,17.88     C471.256,103.992,480,123.552,480,144C480,169.552,466.2,193.424,443.992,206.288z"
   fill="#FFFFFF"
   id="path4"
   style="fill:#432811;fill-opacity:1" />
			<path
   d="M64,216c-17.648,0-32,14.352-32,32s14.352,32,32,32s32-14.352,32-32S81.648,216,64,216z M64,264c-8.824,0-16-7.176-16-16     c0-8.824,7.176-16,16-16c8.824,0,16,7.176,16,16C80,256.824,72.824,264,64,264z"
   fill="#FFFFFF"
   id="path6"
   style="fill:#432811;fill-opacity:1" />
			<rect
   x="56"
   y="296"
   width="16"
   height="16"
   fill="#FFFFFF"
   id="rect8"
   style="fill:#432811;fill-opacity:1" />
			<rect
   x="56"
   y="328"
   width="16"
   height="16"
   fill="#FFFFFF"
   id="rect10"
   style="fill:#432811;fill-opacity:1" />
		</g>
	</g>
</g>
<g
   id="g18">
</g>
<g
   id="g20">
</g>
<g
   id="g22">
</g>
<g
   id="g24">
</g>
<g
   id="g26">
</g>
<g
   id="g28">
</g>
<g
   id="g30">
</g>
<g
   id="g32">
</g>
<g
   id="g34">
</g>
<g
   id="g36">
</g>
<g
   id="g38">
</g>
<g
   id="g40">
</g>
<g
   id="g42">
</g>
<g
   id="g44">
</g>
<g
   id="g46">
</g>
</svg>