<?xml version="1.0" encoding="UTF-8" standalone="no"?>
<!-- Generator: Adobe Illustrator 19.0.0, SVG Export Plug-In . SVG Version: 6.00 Build 0)  -->

<svg
   xmlns:dc="http://purl.org/dc/elements/1.1/"
   xmlns:cc="http://creativecommons.org/ns#"
   xmlns:rdf="http://www.w3.org/1999/02/22-rdf-syntax-ns#"
   xmlns:svg="http://www.w3.org/2000/svg"
   xmlns="http://www.w3.org/2000/svg"
   xmlns:sodipodi="http://sodipodi.sourceforge.net/DTD/sodipodi-0.dtd"
   xmlns:inkscape="http://www.inkscape.org/namespaces/inkscape"
   version="1.1"
   id="Layer_1"
   x="0px"
   y="0px"
   viewBox="0 0 512 512"
   style="enable-background:new 0 0 512 512;"
   xml:space="preserve"
   width="512px"
   height="512px"
   sodipodi:docname="about1.svg"
   inkscape:version="0.92.1 r15371"><metadata
   id="metadata53"><rdf:RDF><cc:Work
       rdf:about=""><dc:format>image/svg+xml</dc:format><dc:type
         rdf:resource="http://purl.org/dc/dcmitype/StillImage" /><dc:title></dc:title></cc:Work></rdf:RDF></metadata><defs
   id="defs51" /><sodipodi:namedview
   pagecolor="#ffffff"
   bordercolor="#666666"
   borderopacity="1"
   objecttolerance="10"
   gridtolerance="10"
   guidetolerance="10"
   inkscape:pageopacity="0"
   inkscape:pageshadow="2"
   inkscape:window-width="1440"
   inkscape:window-height="838"
   id="namedview49"
   showgrid="false"
   inkscape:lockguides="true"
   inkscape:zoom="0.921875"
   inkscape:cx="438.25405"
   inkscape:cy="276.48407"
   inkscape:window-x="-8"
   inkscape:window-y="-8"
   inkscape:window-maximized="1"
   inkscape:current-layer="Layer_1" />

<g
   id="g18">
</g>
<g
   id="g20">
</g>
<g
   id="g22">
</g>
<g
   id="g24">
</g>
<g
   id="g26">
</g>
<g
   id="g28">
</g>
<g
   id="g30">
</g>
<g
   id="g32">
</g>
<g
   id="g34">
</g>
<g
   id="g36">
</g>
<g
   id="g38">
</g>
<g
   id="g40">
</g>
<g
   id="g42">
</g>
<g
   id="g44">
</g>
<g
   id="g46">
</g>
<g
   id="g4560"
   style="fill:#432811;fill-opacity:1"><g
     style="fill:#432811;fill-opacity:1"
     id="g16">
	<g
   style="fill:#432811;fill-opacity:1"
   id="g14">
		<g
   style="fill:#432811;fill-opacity:1"
   id="g12">
			<path
   style="fill:#432811;fill-opacity:1"
   id="path2"
   fill="#FFFFFF"
   d="M413.625,429.469C370.219,468.938,314.24,490.667,256,490.667c-53.885,0-104.771-18.292-145.438-50.5l25.375-41.417     c1.76-2.865,2.063-6.385,0.823-9.51c-1.25-3.125-3.885-5.479-7.125-6.354l-88.344-23.917c-4.094-1.115-8.458,0.292-11.104,3.604     c-2.656,3.302-3.104,7.865-1.146,11.625C73.406,459.198,160.375,512,256,512c63.563,0,124.635-23.698,171.979-66.74     c4.354-3.969,4.677-10.708,0.719-15.073C424.76,425.833,417.99,425.542,413.625,429.469z M94.25,425.969     c-12.365-11.813-23.521-25.042-33.208-39.552l49.26,13.333L94.25,425.969z" />
			<path
   style="fill:#432811;fill-opacity:1"
   id="path4"
   fill="#FFFFFF"
   d="M21.333,256c0-98.76,61.323-183.469,147.896-218.042l23.177,42.688c1.604,2.948,4.5,4.969,7.823,5.458     c3.271,0.448,6.677-0.604,9.063-2.979l64.885-64.344c3.01-2.979,3.969-7.469,2.438-11.417c-1.521-3.948-5.25-6.625-9.479-6.813     l-3.708-0.229C260.969,0.156,258.5,0,256,0C114.844,0,0,114.844,0,256c0,17.979,1.99,36.281,5.917,54.406     c1.083,5,5.5,8.406,10.417,8.406c0.75,0,1.51-0.073,2.271-0.24c5.76-1.25,9.417-6.927,8.167-12.688     C23.167,289.25,21.333,272.458,21.333,256z M240.823,21.823l-36.458,36.146l-14.708-27.083     C206.042,26.042,223.167,22.948,240.823,21.823z" />
			<path
   style="fill:#432811;fill-opacity:1"
   id="path6"
   fill="#FFFFFF"
   d="M333.917,12.167c-5.646-1.854-11.625,1.302-13.406,6.906c-1.802,5.615,1.302,11.615,6.906,13.406     C425.063,63.667,490.667,153.49,490.667,256c0,11.385-0.833,22.698-2.469,33.865l-48.531-1.271     c-3.573-0.188-6.563,1.417-8.646,4.052c-2.083,2.635-2.802,6.094-1.948,9.344l23.375,88.427c1.083,4.094,4.479,7.156,8.667,7.813     c0.552,0.083,1.104,0.125,1.646,0.125c3.604,0,7.01-1.833,8.99-4.927C498.083,352.177,512,304.656,512,256     C512,144.167,440.427,46.177,333.917,12.167z M466.375,359.625l-13.042-49.333l30.729,0.802     C479.99,327.823,474.063,344.094,466.375,359.625z" />
			
			
		</g>
	</g>
</g><path
     sodipodi:nodetypes="ccssssccsccccccscccccccssssccccccc"
     style="fill:#432811;stroke-width:0.59715492;fill-opacity:1"
     id="path2-5"
     d="m 372.85016,400.4812 -0.0659,-0.0678 V 109.95726 c 0,-3.05744 -2.03808,-5.09552 -5.09551,-5.09552 H 163.85952 c -3.05743,0 -5.09551,2.03808 -5.09551,5.09552 V 400.4134 l 0.0697,0.13559 c 0,0 0.19261,1.7669 0.19261,4.82433 0,3.05743 -0.53819,1.97747 -0.057,5.23171 h 4.89018 20.3827 163.06329 20.38268 5.22976 c 0.0744,-2.23729 -0.26041,-2.10588 -0.26041,-5.16332 0,-3.05744 0.12676,-5.02831 0.19262,-4.96051 z M 189.33834,400.4134 V 135.43607 H 342.20998 V 400.4134 Z m 163.06329,0 V 130.34056 c 0,-3.05744 -2.03809,-5.09554 -5.09553,-5.09554 H 184.24282 c -3.05744,0 -5.09553,2.0381 -5.09553,5.09554 v 270.07342 h -10.19164 v -285.3606 h 193.63761 v 285.3606 h -10.19163 z"
     inkscape:connector-curvature="0" /><path
     style="fill:#432811;stroke-width:0.47739431;fill-opacity:1"
     id="path4-9"
     d="m 321.98513,247.84168 h -16.2949 c -2.44426,0 -4.07361,1.62935 -4.07361,4.0736 v 4.07361 h -8.14768 c -2.44426,0 -4.07361,1.62935 -4.07361,4.07361 0,2.44426 1.62935,4.0736 4.07361,4.0736 h 8.14768 v 4.07358 c 0,2.44426 1.62935,4.07361 4.07361,4.07361 h 16.2949 c 2.44426,0 4.07361,-1.62935 4.07361,-4.07361 v -16.2944 c 0,-2.44425 -1.62935,-4.0736 -4.07361,-4.0736 z m -4.0736,16.2949 h -8.14769 v -8.14769 h 8.14769 z"
     inkscape:connector-curvature="0" /></g></svg>