<?xml version="1.0" encoding="UTF-8" standalone="no"?>
<svg
   xmlns:dc="http://purl.org/dc/elements/1.1/"
   xmlns:cc="http://creativecommons.org/ns#"
   xmlns:rdf="http://www.w3.org/1999/02/22-rdf-syntax-ns#"
   xmlns:svg="http://www.w3.org/2000/svg"
   xmlns="http://www.w3.org/2000/svg"
   xmlns:sodipodi="http://sodipodi.sourceforge.net/DTD/sodipodi-0.dtd"
   xmlns:inkscape="http://www.inkscape.org/namespaces/inkscape"
   viewBox="0 0 400 400"
   height="400"
   width="400"
   id="svg2"
   version="1.1"
   sodipodi:docname="advan4.svg"
   inkscape:version="0.92.1 r15371">
  <sodipodi:namedview
     pagecolor="#ffffff"
     bordercolor="#666666"
     borderopacity="1"
     objecttolerance="10"
     gridtolerance="10"
     guidetolerance="10"
     inkscape:pageopacity="0"
     inkscape:pageshadow="2"
     inkscape:window-width="640"
     inkscape:window-height="480"
     id="namedview6"
     showgrid="false"
     inkscape:zoom="0.59"
     inkscape:cx="200"
     inkscape:cy="200"
     inkscape:window-x="0"
     inkscape:window-y="0"
     inkscape:window-maximized="0"
     inkscape:current-layer="svg2" />
  <metadata
     id="metadata8">
    <rdf:RDF>
      <cc:Work
         rdf:about="">
        <dc:format>image/svg+xml</dc:format>
        <dc:type
           rdf:resource="http://purl.org/dc/dcmitype/StillImage" />
        <dc:title />
      </cc:Work>
    </rdf:RDF>
  </metadata>
  <defs
     id="defs6" />
  <path
     id="path4487"
     d="m 122.09524,399.59968 c -3.01981,-3.01981 -2.86503,-19.69768 0.24017,-25.87819 3.60712,-7.17954 9.91445,-10.69324 19.1951,-10.69324 4.29156,0 7.8108,-0.45 7.82056,-1 0.009,-0.55 2.10974,-12.35942 4.66666,-26.24316 2.55691,-13.88374 4.64894,-25.73374 4.64894,-26.33333 0,-0.5996 -15.20702,-1.09017 -33.79335,-1.09017 -31.045133,0 -33.972813,-0.1983 -36.000003,-2.43832 -3.02427,-3.34178 -2.76599,-6.35203 0.75669,-8.81942 2.63656,-1.8467 18.462193,-2.0756 143.509283,-2.0756 136.5459,0 140.66427,-0.0733 144.70334,-2.57457 4.46866,-2.76735 7.93341,-7.87404 9.33492,-13.75876 l 0.87325,-3.66667 H 200 11.949197 l 0.86334,3.66667 c 1.34444,5.70989 5.28974,11.44289 9.63442,14 3.28477,1.93328 7.28623,2.33333 23.33863,2.33333 22.68686,0 26.21441,0.88635 26.21441,6.58676 0,6.30228 -2.96454,7.03252 -26.5022,6.52811 -19.34146,-0.41448 -21.41238,-0.70445 -27.52738,-3.85433 C 10.420607,300.39981 3.3860571,291.98483 1.3433771,284.39891 0.40490712,280.91369 0.06533712,237.56856 0.30708712,152.12164 l 0.35958,-127.093391 3.69638998,-6.28815 c 4.17498,-7.1023 10.5925699,-12.5109695 17.9675699,-15.1428495 7.4036,-2.64208001 347.935143,-2.64208001 355.338743,0 7.375,2.63188 13.79259,8.0405495 17.96756,15.1428495 l 3.6964,6.28815 0.41356,35.76672 c 0.45294,39.172034 0.30423,40.010891 -6.96666,39.301371 L 388.66667,99.694915 388,73.694919 l -0.66667,-26 H 200 12.666667 l -0.34127,107.000001 -0.34126,107 H 199.99207 388 v -71.95309 c 0,-69.7733 0.0781,-71.9949 2.57901,-73.33333 3.50384,-1.8752 4.86878,-1.74198 7.32575,0.71499 1.8584,1.8584 2.09524,11.1761 2.09524,82.42915 0,90.89289 0.22849,88.65063 -10.08487,98.96399 -9.76029,9.76029 -10.48402,9.84496 -84.15713,9.84496 -35.43357,0 -64.42467,0.49057 -64.42467,1.09017 0,0.59959 2.09203,12.44959 4.64894,26.33333 2.55692,13.88374 4.65692,25.69316 4.66666,26.24316 0.009,0.55 3.529,1 7.82056,1 9.28064,0 15.58798,3.5137 19.19511,10.69324 3.10519,6.18051 3.25997,22.85838 0.24016,25.87819 -1.85563,1.85563 -10.76479,2.09524 -77.90476,2.09524 -67.13997,0 -76.04913,-0.23961 -77.90476,-2.09524 z m 144.57143,-15.85785 c 0,-4.52103 -0.6204,-6.28511 -2.57902,-7.33334 -1.67086,-0.89421 -24.23798,-1.38024 -64.08765,-1.38024 -39.84967,0 -62.41679,0.48603 -64.08765,1.38024 -1.95862,1.04823 -2.57902,2.81231 -2.57902,7.33334 v 5.95309 H 200 266.66667 Z m -29.33334,-23.09774 c 0,-2.26972 -7.15809,-42.97334 -8.66676,-49.2825 -0.71568,-2.99288 -0.78366,-3 -28.66657,-3 -27.88291,0 -27.95089,0.007 -28.66657,3 -1.50867,6.30916 -8.66676,47.01278 -8.66676,49.2825 0,2.23323 2.36348,2.38416 37.33333,2.38416 34.96985,0 37.33333,-0.15093 37.33333,-2.38416 z M 387.18745,31.361579 c -1.37968,-5.8596 -5.32217,-11.45711 -10.09536,-14.33333 -4.36484,-2.63016 -6.78945,-2.66667 -177.09209,-2.66667 -170.302633,0 -172.727253,0.0365 -177.092093,2.66667 -4.77319,2.87622 -8.71568,8.47373 -10.09537,14.33333 l -0.86334,3.66667 H 200 388.0508 Z M 89.886547,245.89821 c -26.8137,-32.82177 -47.34016,-68.90014 -49.48013,-86.96885 -1.81099,-15.29093 6.5477,-36.45064 18.72345,-47.39768 22.23024,-19.986901 52.628873,-21.576941 76.503283,-4.0016 19.79432,14.57174 28.48548,41.73848 20.50092,64.08151 -5.29332,14.81217 -18.10972,36.49718 -35.70782,60.41666 l -7.11198,9.66667 h 96.71902 c 78.08227,0 97.54576,-0.34611 101.00954,-1.79617 6.04049,-2.52879 13.96126,-11.75962 15.04426,-17.53252 1.3719,-7.31276 -0.0704,-17.7867 -2.98718,-21.69346 -1.43318,-1.91958 -4.87143,-5.32489 -7.64056,-7.56734 l -5.03478,-4.07718 -56.21229,-0.66666 c -55.14971,-0.65407 -56.34079,-0.72484 -63.01071,-3.74415 -25.61938,-11.59725 -32.01062,-45.20077 -12.24525,-64.38241 2.79423,-2.7117 7.92215,-6.34256 11.39539,-8.06858 6.25578,-3.10879 6.79913,-3.142 57.98162,-3.54353 L 300,108.21759 300.0196,91.956249 c 0.0224,-18.50739 1.27771,-22.54109 7.34964,-23.61607 2.61004,-0.46209 3.39476,-1.0606 2.29737,-1.75222 -2.3035,-1.4518 -2.09432,-8.2116 0.31602,-10.21201 2.90462,-2.41062 7.44178,-0.75628 12.64282,4.60984 l 4.58506,4.73056 5.62008,-5.51569 c 4.60541,-4.51988 6.23772,-5.36068 9.04108,-4.65708 4.52785,1.13642 6.00062,6.6091 2.74632,10.20506 -2.29044,2.53097 -2.25656,2.61294 1.08012,2.61294 7.01736,0 7.63522,2.15243 7.63522,26.59865 0,19.211511 -0.31436,22.669221 -2.2036,24.238101 -1.78953,1.48607 -16.5087,1.95519 -78.33333,2.49659 l -76.12973,0.66667 -4.33639,3.09296 c -8.05308,5.74393 -11.50265,11.69738 -12.086,20.85861 -0.56147,8.81773 1.29889,14.33784 6.91168,20.50844 6.87527,7.55855 6.28169,7.48567 66.84404,8.20665 l 56,0.66667 6.61041,3.27708 c 8.41262,4.17051 15.38107,11.13896 19.49238,19.49237 4.34476,8.82775 4.49766,23.67566 0.33741,32.76278 -3.61273,7.89117 -11.48417,15.77352 -19.87632,19.90389 L 310,254.36159 203.70388,254.73313 97.407757,255.10468 Z m 18.978543,-19.23058 c 12.77659,-17.10011 25.3775,-37.05332 31.51443,-49.90227 5.22179,-10.93291 5.60639,-12.51364 5.61319,-23.07044 0.007,-9.71696 -0.52407,-12.41537 -3.71836,-18.92012 -4.84935,-9.87506 -15.8807,-19.98583 -25.94547,-23.78032 -10.3189,-3.89028 -27.378553,-3.28496 -36.328883,1.28905 -19.29753,9.8619 -30.25909,30.37891 -26.31498,49.25438 2.7047,12.94397 16.89506,37.95425 36.59059,64.49034 4.76256,6.41667 9.04886,11.65439 9.52513,11.63938 0.476263,-0.0151 4.555213,-4.965 9.064353,-11 z m -16.198423,-39.5528 c -24.44469,-5.95103 -34.04374,-36.68811 -16.95626,-54.29559 7.33745,-7.56073 13.94166,-10.37989 24.28959,-10.36853 9.909713,0.0109 16.691623,2.92128 23.599093,10.12737 16.59971,17.31733 8.66599,46.84999 -14.42831,53.70825 -7.48296,2.2222 -10.215753,2.35939 -16.504113,0.8285 z m 18.136153,-15.11315 c 12.33606,-8.24103 12.09309,-26.51367 -0.4573,-34.39247 -3.43582,-2.15692 -5.98978,-2.62218 -12.199893,-2.22249 -7.21162,0.46415 -8.27547,0.95695 -13,6.02189 -4.63027,4.9639 -5.14513,6.22263 -5.14064,12.56802 0.006,8.33174 3.2309,14.47869 9.64949,18.39216 6.04442,3.68533 15.323323,3.52425 21.148343,-0.36711 z M 320,105.02825 c 0,-2.66666 -0.66667,-3.33333 -3.33333,-3.33333 -2.66667,0 -3.33334,0.66667 -3.33334,3.33333 0,2.66667 0.66667,3.33334 3.33334,3.33334 2.66666,0 3.33333,-0.66667 3.33333,-3.33334 z m 21.33333,0 c 0,-2.81481 -0.62222,-3.33333 -4,-3.33333 -3.37777,0 -4,0.51852 -4,3.33333 0,2.81482 0.62223,3.33334 4,3.33334 3.37778,0 4,-0.51852 4,-3.33334 z M 320,84.361579 c 0,-3.37778 -0.51852,-4 -3.33333,-4 -2.81482,0 -3.33334,0.62222 -3.33334,4 0,3.37778 0.51852,4 3.33334,4 2.81481,0 3.33333,-0.62222 3.33333,-4 z m 21.08856,0.33334 c -0.33137,-2.87996 -1.2086,-3.75719 -4.08856,-4.08857 -3.29456,-0.37908 -3.66667,-0.007 -3.66667,3.66667 0,3.67364 0.41492,4.08856 4.08856,4.08856 3.67364,0 4.04575,-0.37211 3.66667,-3.66666 z"
     style="fill:#ffffff;stroke-width:1.33333337" />
</svg>
