<?xml version="1.0" encoding="UTF-8" standalone="no"?>
<svg
   xmlns:dc="http://purl.org/dc/elements/1.1/"
   xmlns:cc="http://creativecommons.org/ns#"
   xmlns:rdf="http://www.w3.org/1999/02/22-rdf-syntax-ns#"
   xmlns:svg="http://www.w3.org/2000/svg"
   xmlns="http://www.w3.org/2000/svg"
   version="1.1"
   id="svg2"
   width="400"
   height="400"
   viewBox="0 0 400 400">
  <metadata
     id="metadata8">
    <rdf:RDF>
      <cc:Work
         rdf:about="">
        <dc:format>image/svg+xml</dc:format>
        <dc:type
           rdf:resource="http://purl.org/dc/dcmitype/StillImage" />
        <dc:title></dc:title>
      </cc:Work>
    </rdf:RDF>
  </metadata>
  <defs
     id="defs6" />
  <path
     style="fill:#43281f;stroke-width:1.33333337;fill-opacity:0.94117647"
     d="m 58.456823,399.59968 c -1.78703,-1.78703 -2.09524,-6.7492 -2.09524,-33.73333 0,-22.82963 0.44546,-32.08356 1.6,-33.2381 1.02676,-1.02676 6.28148,-1.6 14.66667,-1.6 h 13.06666 v -53.9244 -53.92438 l 2.96334,-2.07562 c 3.81355,-2.6711 4.49332,-2.61894 7.70333,0.59107 2.57778,2.57777 2.66667,4.44444 2.66667,56 v 53.33333 h 13.366327 c 13.12104,0 13.3902,0.0628 14.66666,3.42014 0.71519,1.88106 1.30034,16.44757 1.30034,32.36998 0,24.04394 -0.35174,29.45204 -2.07561,31.9132 -2.04631,2.92152 -2.5249,2.96335 -33.904757,2.96335 -27.15782,0 -32.13666,-0.30751 -33.92439,-2.09524 z M 115.02824,365.69492 V 343.02825 H 92.361583 69.694913 v 22.66667 22.66667 h 22.66667 22.666657 z m 52.87332,33.56168 c -1.91712,-2.11839 -2.20665,-6.41607 -2.20665,-32.75432 0,-18.3478 0.54489,-31.33415 1.38024,-32.89501 1.22285,-2.28491 2.89539,-2.57902 14.66667,-2.57902 h 13.28642 v -53.96926 -53.96926 l 3.33334,-2.18409 c 3.08782,-2.02321 3.57884,-2.02321 6.66666,0 l 3.33334,2.18409 v 53.96926 53.96926 H 221.648 c 11.77128,0 13.44382,0.29411 14.66667,2.57902 0.83623,1.5625 1.38024,14.61918 1.38024,33.12668 0,27.90077 -0.21128,30.73888 -2.43832,32.75432 -2.12337,1.92164 -6.48827,2.20665 -33.79335,2.20665 -28.68292,0 -31.54308,-0.2078 -33.56168,-2.43832 z m 56.46002,-33.56168 v -22.66667 h -22.66667 -22.66667 v 22.66667 22.66667 h 22.66667 22.66667 z m 52.74226,33.03665 c -1.72386,-2.46116 -2.0756,-7.86926 -2.0756,-31.9132 0,-15.92241 0.58515,-30.48892 1.30034,-32.36998 1.27646,-3.35738 1.54562,-3.42014 14.66667,-3.42014 h 13.36634 v -53.33333 c 0,-51.55556 0.0889,-53.42223 2.66666,-56 3.21002,-3.21001 3.88979,-3.26217 7.70332,-0.59107 l 2.96335,2.07562 v 53.92438 53.9244 h 13.06667 c 8.38518,0 13.6399,0.57324 14.66666,1.6 1.15454,1.15454 1.6,10.40847 1.6,33.2381 0,26.98413 -0.30821,31.9463 -2.09524,33.73333 -1.78773,1.78773 -6.76657,2.09524 -33.92438,2.09524 -31.37988,0 -31.85848,-0.0419 -33.90479,-2.96335 z m 56.59108,-33.03665 v -22.66667 h -22.66667 -22.66666 v 22.66667 22.66667 h 22.66666 22.66667 z M 28.804223,303.08252 c -11.92523,-2.8404 -22.5728103,-13.52003 -25.9556203,-26.03376 -1.89769999,-7.01997 -0.72547,-17.68589 2.67667,-24.35465 3.51305,-6.88614 13.7919003,-15.91256 20.3620503,-17.88103 l 5.14093,-1.54027 v -17.6937 c 0,-14.30742 0.40099,-18.09471 2.09523,-19.78895 1.85815,-1.85815 11.13709,-2.09524 81.999997,-2.09524 h 79.90476 v -13.33333 -13.33334 h -43.73333 c -32.23704,0 -44.15393,-0.4206 -45.33333,-1.6 -1.1058,-1.1058 -1.6,-7.93685 -1.6,-22.11581 v -20.51582 l 4,-1.50984 c 3.54005,-1.33621 4,-2.13253 4,-6.92519 0,-4.79267 -0.45995,-5.58898 -4,-6.9252 l -4,-1.50983 V 85.410735 c 0,-21.195395 0.59514,-23.715819 5.6,-23.715819 1.99111,0 2.4,-1.135804 2.4,-6.666668 0,-5.530864 -0.40889,-6.666666 -2.4,-6.666666 -4.99147,0 -5.6,-2.535559 -5.6,-23.333333 0,-13.881481 0.49683,-20.6301694 1.6,-21.7333334 2.31474,-2.31474297 189.15193,-2.31474297 191.46667,0 1.10316,1.103164 1.6,7.8518524 1.6,21.7333334 0,20.797774 -0.60853,23.333333 -5.6,23.333333 -1.9911,0 -2.4,1.135802 -2.4,6.666666 0,5.530864 0.4089,6.666668 2.4,6.666668 5.00486,0 5.6,2.520424 5.6,23.715819 v 20.515825 l -4,1.50983 c -3.54005,1.33622 -4,2.13253 -4,6.9252 0,4.79266 0.45995,5.58898 4,6.92519 l 4,1.50984 v 20.51582 c 0,14.17896 -0.4942,21.01001 -1.6,22.11581 -1.1794,1.1794 -13.0963,1.6 -45.33334,1.6 h -43.73333 v 13.33334 13.33333 h 79.90477 c 70.86292,0 80.14185,0.23709 82,2.09524 1.69424,1.69424 2.09524,5.48153 2.09524,19.78895 v 17.6937 l 5.14093,1.54027 c 6.57015,1.96847 16.84899,10.99489 20.36204,17.88103 13.77929,27.00965 -12.41289,58.37537 -41.64943,49.87608 -32.11228,-9.3353 -34.07293,-55.15064 -2.8701,-67.06711 l 5.68322,-2.17045 v -13.15219 -13.15219 h -48 -48.00001 v 13.11992 13.11992 l 5.66667,1.8427 c 8.46161,2.75154 18.91105,13.72088 21.55648,22.62897 2.65006,8.92375 2.64474,12.33181 -0.0333,21.37983 -4.01704,13.57181 -19.66998,25.242 -33.85647,25.242 -7.33003,0 -17.58719,-4.17907 -23.39362,-9.53126 -19.66846,-18.12976 -14.00746,-49.76012 10.58678,-59.15274 l 6.14013,-2.34496 v -13.15219 -13.15219 h -48 -48 v 13.15219 13.15219 l 6.20479,2.36964 c 18.52044,7.07301 27.82328,30.03172 19.30166,47.63502 -5.73112,11.83891 -19.78736,21.0243 -32.17312,21.0243 -18.18442,0 -36,-17.81558 -36,-36 0,-12.81106 9.52575,-26.77714 21.92539,-32.1457 l 7.36244,-3.18764 0.0228,-13 0.0228,-13 h -47.999997 -48 v 13.15219 13.15219 l 5.68323,2.17045 c 24.72471,9.44245 30.39429,42.69691 10.2231,59.96269 -8.71482,7.45956 -20.32427,10.26999 -31.46369,7.61675 z m 20.31215,-15.36876 c 13.19687,-7.73387 14.82389,-25.39957 3.29834,-35.81223 -14.81527,-13.38469 -37.38646,-3.21866 -37.38646,16.8388 0,17.90972 18.41411,28.15902 34.08812,18.97343 z m 108.683967,0.59404 c 12.83449,-6.54767 15.66193,-23.626 5.73128,-34.61805 -14.7951,-16.3764 -40.7039,-5.1759 -38.8808,16.80834 1.36191,16.4229 18.16865,25.45238 33.14952,17.80971 z m 108.76833,0.53281 c 11.255,-5.34084 15.89053,-20.79093 9.51472,-31.71233 -3.63145,-6.22048 -12.62333,-11.43336 -19.72181,-11.43336 -11.55848,0 -22.66667,11.07251 -22.66667,22.59385 0,16.43619 17.92777,27.64418 32.87376,20.55184 z m 112.14417,-1.35466 c 6.46631,-4.79006 9.64875,-10.8399 9.64875,-18.34234 0,-20.45521 -22.39684,-30.78429 -37.38647,-17.24208 -8.10875,7.32578 -9.94568,16.82246 -5.16441,26.69923 4.11261,8.49553 11.62588,12.70113 21.5688,12.07331 5.02548,-0.31734 8.94716,-1.42051 11.33333,-3.18812 z M 287.02825,144.36159 v -10.66667 h -85.33334 -85.33333 v 10.66667 10.66666 h 85.33333 85.33334 z m -9.33334,-30 v -6 h -10 c -8.22223,0 -10.47408,-0.47408 -12.66667,-2.66667 -3.21001,-3.21001 -3.26217,-3.88978 -0.59106,-7.703329 1.93925,-2.768672 3.07792,-2.963342 17.33333,-2.963342 h 15.25774 V 84.361583 73.694916 h -85.33334 -85.33333 v 10.666667 10.666666 h 59.9244 59.92438 l 2.07562,2.963342 c 2.6711,3.813549 2.61894,4.493319 -0.59107,7.703329 -2.57995,2.57995 -4.44444,2.66667 -57.33333,2.66667 h -54.66667 v 6 6 h 76 76 z m 0,-59.333342 v -6.666666 h -76 -76 v 6.666666 6.666668 h 76 76 z m 9.05609,-29.666665 0.38943,-10.333334 h -85.38944 -85.38941 v 9.777778 c 0,5.377778 0.40443,10.182214 0.89875,10.676526 0.49431,0.494312 38.74431,0.744312 84.99999,0.555556 l 84.10127,-0.343193 z"
     id="path4487" />
</svg>
