<?xml version="1.0" encoding="utf-8"?>
<svg xmlns="http://www.w3.org/2000/svg"
	xmlns:xlink="http://www.w3.org/1999/xlink"
	width="69px" height="69px" viewBox="0 0 69 69">
<path fillRule="evenodd" d="M 57.39 60.31C 57.18 60.5 56.91 60.59 56.65 60.59 56.34 60.59 56.03 60.46 55.81 60.21 55.39 59.75 55.44 59.04 55.9 58.63 62.8 52.51 66.75 43.71 66.75 34.5 66.75 25.88 63.4 17.78 57.31 11.69 51.22 5.6 43.12 2.24 34.5 2.24 27.48 2.24 20.81 4.46 15.21 8.65 14.71 9.02 14.01 8.92 13.64 8.42 13.27 7.92 13.37 7.22 13.86 6.85 19.86 2.37 26.99-0 34.5-0 43.72-0 52.38 3.59 58.89 10.1 65.41 16.62 69 25.28 69 34.5 69 44.35 64.77 53.76 57.39 60.31ZM 32 12.98C 34.49 10.5 37.88 9.13 41.57 9.13 46.08 9.13 50.71 11.17 54.27 14.73 61.01 21.46 61.77 31.24 56.02 37 53.53 39.49 50.13 40.86 46.45 40.86 43.93 40.86 41.37 40.22 38.98 39.04 38.98 39.04 35.44 42.58 35.44 42.58 35.23 42.79 34.94 42.91 34.64 42.91 34.64 42.91 32.86 42.91 32.86 42.91 32.86 42.91 32.86 44.69 32.86 44.69 32.86 44.99 32.74 45.28 32.53 45.49 32.53 45.49 29.29 48.72 29.29 48.72 29.08 48.93 28.8 49.05 28.5 49.05 28.5 49.05 26.72 49.05 26.72 49.05 26.72 49.05 26.72 50.84 26.72 50.84 26.72 51.13 26.6 51.42 26.39 51.63 26.39 51.63 23.55 54.47 23.55 54.47 23.36 54.66 23.1 54.78 22.82 54.79 22.82 54.79 16.95 55.12 16.95 55.12 16.9 55.12 16.84 55.12 16.79 55.12 16.02 55.12 15.28 54.82 14.73 54.27 14.14 53.69 13.83 52.88 13.88 52.05 13.88 52.05 14.2 46.18 14.2 46.18 14.22 45.9 14.34 45.64 14.53 45.45 14.53 45.45 21.48 38.5 21.48 38.5 21.92 38.06 22.63 38.06 23.07 38.5 23.5 38.94 23.5 39.65 23.07 40.09 23.07 40.09 16.42 46.73 16.42 46.73 16.42 46.73 16.12 52.17 16.12 52.17 16.11 52.43 16.24 52.6 16.32 52.68 16.39 52.76 16.56 52.89 16.82 52.88 16.82 52.88 22.27 52.58 22.27 52.58 22.27 52.58 24.47 50.37 24.47 50.37 24.47 50.37 24.47 47.93 24.47 47.93 24.47 47.31 24.98 46.81 25.6 46.81 25.6 46.81 28.04 46.81 28.04 46.81 28.04 46.81 30.62 44.23 30.62 44.23 30.62 44.23 30.62 41.79 30.62 41.79 30.62 41.17 31.12 40.67 31.74 40.67 31.74 40.67 34.18 40.67 34.18 40.67 34.18 40.67 36.96 37.88 36.96 37.88 36.33 37.47 35.73 37.02 35.14 36.53 35.13 36.52 35.11 36.51 35.1 36.5 33.7 35.32 32.45 33.97 31.41 32.47 31.4 32.47 31.4 32.46 31.4 32.46 31.3 32.32 31.21 32.18 31.12 32.04 31.12 32.04 26.24 36.91 26.24 36.91 25.8 37.35 25.09 37.35 24.65 36.91 24.22 36.47 24.22 35.76 24.65 35.33 24.65 35.33 29.96 30.02 29.96 30.02 27.01 24.09 27.61 17.37 32 12.98ZM 32.47 29.96C 33.26 31.32 34.22 32.56 35.33 33.67 35.81 34.14 36.32 34.6 36.84 35.02 36.93 35.09 37.03 35.17 37.12 35.24 39.78 37.28 43.06 38.61 46.45 38.61 49.58 38.61 52.34 37.51 54.43 35.41 59.29 30.55 58.53 22.16 52.68 16.31 49.54 13.17 45.49 11.37 41.57 11.37 38.44 11.37 35.68 12.48 33.59 14.57 29.68 18.48 29.41 24.65 32.47 29.96ZM 43.22 17.82C 45.02 17.82 47.05 18.77 48.63 20.36 49.87 21.6 50.73 23.1 51.04 24.58 51.39 26.21 51.03 27.7 50.06 28.67 49.33 29.4 48.33 29.78 47.17 29.78 45.37 29.78 43.35 28.83 41.76 27.24 40.52 26 39.66 24.51 39.35 23.03 39 21.4 39.36 19.91 40.33 18.94 41.06 18.21 42.06 17.82 43.22 17.82ZM 41.54 22.56C 41.76 23.61 42.42 24.73 43.34 25.66 44.5 26.82 45.97 27.54 47.17 27.54 47.56 27.54 48.1 27.46 48.47 27.08 49.05 26.5 48.96 25.56 48.85 25.04 48.63 24 47.97 22.87 47.05 21.95 45.89 20.79 44.42 20.07 43.22 20.07 42.83 20.07 42.29 20.15 41.92 20.53 41.34 21.1 41.43 22.05 41.54 22.56ZM 2.24 34.5C 2.24 43.11 5.6 51.21 11.69 57.31 17.78 63.4 25.88 66.75 34.5 66.75 40.92 66.75 47.13 64.87 52.44 61.31 52.96 60.96 53.65 61.1 54 61.61 54.34 62.13 54.21 62.83 53.69 63.17 48.01 66.98 41.37 69 34.5 69 25.28 69 16.62 65.41 10.1 58.89 3.59 52.38-0 43.71-0 34.5-0 25.16 3.67 16.42 10.34 9.88 10.78 9.44 11.49 9.45 11.92 9.89 12.36 10.34 12.35 11.05 11.91 11.48 5.68 17.6 2.24 25.77 2.24 34.5Z" fill="rgb(67,39,17)"/></svg>